<svg xmlns="http://www.w3.org/2000/svg" viewBox="0 0 300 300"><defs><style>.cls-1{fill:#727272;}.cls-2{opacity:0.3;}.cls-3{fill:none;}</style></defs><g id="Layer_2" data-name="Layer 2"><g id="Layer_1-2" data-name="Layer 1"><path d="M243.4,120.63v58.74a7.93,7.93,0,0,1-7.94,7.94H195.25a7.93,7.93,0,0,0-7.94,7.94v40.21a7.93,7.93,0,0,1-7.94,7.94H120.63a7.94,7.94,0,0,1-7.94-7.94V195.25a7.93,7.93,0,0,0-7.94-7.94H64.54a7.94,7.94,0,0,1-7.94-7.94V120.63a7.94,7.94,0,0,1,7.94-7.93h40.21a7.94,7.94,0,0,0,7.94-8V64.54a8,8,0,0,1,7.94-7.94h58.74a7.94,7.94,0,0,1,7.94,7.94v40.21a7.94,7.94,0,0,0,7.94,8h40.21A7.93,7.93,0,0,1,243.4,120.63Z"/><path class="cls-1" d="M118.67,155.16a11.89,11.89,0,0,1-4.15,4.64,12.31,12.31,0,0,1-6.61,2,12,12,0,0,1-6.44-1.89l-29-18.41a13.89,13.89,0,0,1-4.23-4.13,14.09,14.09,0,0,1-.14-15.25,44.12,44.12,0,0,1,6.5-8,4.74,4.74,0,1,1,6.61,6.8,34.49,34.49,0,0,0-5.09,6.27,4.58,4.58,0,0,0,1.42,6.3l23,14.56,6,3.83a2.54,2.54,0,0,0,3.87-2.55l-.78-4.88-4.64-29a4.58,4.58,0,0,0-5.22-3.8A34.18,34.18,0,0,0,91.68,114a4.74,4.74,0,1,1-3.74-8.72,43.92,43.92,0,0,1,10.33-3,14.05,14.05,0,0,1,16.09,11.67l5.42,33.92A12,12,0,0,1,118.67,155.16Z"/><path class="cls-1" d="M223.69,76.31C216.37,69,203,70.69,187.31,78V88.47c9.82-5,17.86-7.45,23.32-7.45,2.87,0,5,.67,6.35,2,3.84,3.85,2.2,14.68-5.45,29.67a171.33,171.33,0,0,1-13.47,21.69q2.83,4,5.77,8A176.89,176.89,0,0,0,222,112.69C229.32,97,231,83.64,223.69,76.31Z"/><path class="cls-1" d="M223.69,223.69c-3.19,3.18-7.58,4.77-13.08,4.77-6.36,0-14.18-2.12-23.3-6.36-1.73-.79-3.49-1.67-5.31-2.63a203.64,203.64,0,0,1-32-21.41q-3.72-3-7.46-6.17l-.45-.38c-5.84-5-11.69-10.45-17.42-16.18-3.5-3.5-6.94-7.11-10.27-10.78-1-1.09-2-2.19-2.94-3.29-3.83-4.34-7.51-8.76-11-13.19l6,3.83a2.54,2.54,0,0,0,3.87-2.55l-.77-4.88q4.19,5.24,9,10.69l3,3.27q4.62,5,9.77,10.2c5.78,5.77,11.68,11.23,17.56,16.27l1.06.89q3.74,3.18,7.46,6.1a190.57,190.57,0,0,0,28.93,19.18l.91.47c17.08,8.77,26.52,8.6,29.67,5.44,1.33-1.33,2-3.48,2-6.35,0-4.64-1.76-11.13-5.37-19-.63-1.39-1.33-2.82-2.08-4.3H222c.68,1.46,1.3,2.89,1.88,4.3C229.54,205.44,230.33,217,223.69,223.69Z"/><path class="cls-1" d="M78,74.85a15.51,15.51,0,0,0-1.69,1.46,16.1,16.1,0,0,0-4.48,9.55,4.92,4.92,0,1,1-.1,6.29,42.27,42.27,0,0,0,.91,5.58,58.93,58.93,0,0,1,8.67-4.8c-.72-4.67-.13-8.08,1.7-9.91a7.57,7.57,0,0,1,4.59-1.91A16.36,16.36,0,0,1,89.38,81c5.38,0,13.31,2.38,23,7.28a2.55,2.55,0,0,0,.33.17V78C98.14,71.22,85.6,69.26,78,74.85Z"/><path class="cls-1" d="M88.61,89.06a13,13,0,1,1-13-13,12.22,12.22,0,0,1,2.19.19A13,13,0,0,1,88.61,89.06Z"/><path class="cls-1" d="M224,108.11l-1.21,14a4.4,4.4,0,0,0,1.59,3.77l10.86,8.95a4.39,4.39,0,0,1-1.8,7.67l-13.7,3.18a4.42,4.42,0,0,0-3.1,2.67l-5.15,13.1a4.39,4.39,0,0,1-7.85.66l-7.27-12a4.36,4.36,0,0,0-3.5-2.12l-14-.85a4.4,4.4,0,0,1-3.06-7.27L185,129.21a4.39,4.39,0,0,0,.94-4l-3.54-13.63a4.4,4.4,0,0,1,6-5.15l13,5.49a4.41,4.41,0,0,0,4.08-.35L217.26,104A4.39,4.39,0,0,1,224,108.11Z"/><path class="cls-1" d="M188.33,161.5c-4.18,4.74-8.54,9.37-13,13.83-5.87,5.87-11.86,11.42-17.85,16.56-2.49,2.13-5,4.19-7.47,6.17a204.28,204.28,0,0,1-32,21.41c-1.82,1-3.6,1.84-5.32,2.63-9.12,4.24-16.94,6.36-23.3,6.36-5.5,0-9.89-1.59-13.08-4.77-6.64-6.66-5.86-18.25-.2-32.08q.87-2.12,1.88-4.3H88.48q-1.14,2.22-2.08,4.3C80.54,204.37,79.55,213.51,83,217c3.16,3.15,12.59,3.34,29.67-5.44l.92-.47a191.83,191.83,0,0,0,28.93-19.18q3.72-2.94,7.47-6.1c6.23-5.28,12.48-11,18.61-17.16,3.09-3.09,6-6.16,8.82-9.18a1.15,1.15,0,0,1,.87-.35l9.25.57a1,1,0,0,1,.88.53A1.1,1.1,0,0,1,188.33,161.5Z"/><path class="cls-2" d="M78,187.31H88.48q-1.14,2.22-2.08,4.3H76.11Q77,189.49,78,187.31Z"/><path class="cls-2" d="M223.89,191.61H213.61c-.63-1.39-1.33-2.82-2.08-4.3H222C222.69,188.77,223.31,190.2,223.89,191.61Z"/><rect class="cls-3" width="300" height="300"/></g></g></svg>