<svg xmlns="http://www.w3.org/2000/svg" viewBox="0 0 300 300"><defs><style>.cls-1{fill:none;}</style></defs><g id="Layer_2" data-name="Layer 2"><g id="Layer_1-2" data-name="Layer 1"><path d="M237.71,224.56,163.46,116a14.2,14.2,0,0,0-11.8-6.17c-.73,0-1.46.1-2.17.17-10.79,1.64-18.51,3.36-27-3.72l-6.73-5.63a14.44,14.44,0,0,0-17.34-.9L82.11,110.89l-11.44,7.89a14.23,14.23,0,0,0-5.46,16.42l2.8,8.36a24,24,0,0,1,1.27,7.16c0,6.73-3.46,12.16-7.62,19.35a14.24,14.24,0,0,0,.63,15.15L136.55,293.8a14.51,14.51,0,0,0,20,3.73l77.53-53.11a14.29,14.29,0,0,0,3.63-19.88Zm-72.16-47.75c-.54,6-1.73,11.89-2.63,17.71-.63,4.45-1.27,8.89-1.73,13.35a40.91,40.91,0,0,0,.1,5.72c0,.54-.1.73-.64.9a82.12,82.12,0,0,1-13.35,1.73,93.15,93.15,0,0,1-23-1.36,42.87,42.87,0,0,1-11.89-3.9,16.32,16.32,0,0,1-8.72-10.8c-1.53-5.72.1-10.79,5.09-14,6.8-4.36,14.08-5.26,21.61-2.27a12.84,12.84,0,0,1,2.36,1.1,22.84,22.84,0,0,1-2-9.36,33.82,33.82,0,0,1,6.45-21.14,15,15,0,0,1,6.36-5.09,11.51,11.51,0,0,1,10.35.73c5.45,2.9,8.8,7.53,10.53,13.42a38.78,38.78,0,0,1,1.09,13.26Z"/><path d="M84,121.26C73.76,108.14,68.9,94.56,70.7,84c1.73-10.18,8.07-20.13,17.85-28,8.45-6.82,18.19-11.39,27.58-15.79L153.8,22.53a55.43,55.43,0,0,0,13.71-8.66c3.82-3.42,4.09-8.07,4-13.79L180.26,0c0,5.59.12,14-6.93,20.34A63.61,63.61,0,0,1,157.5,30.41L119.84,48.06c-8.93,4.18-18.17,8.51-25.82,14.67C85.9,69.28,80.67,77.35,79.29,85.44s3,19.38,11.58,30.42L84,121.24Z"/><rect class="cls-1" width="300" height="300"/></g></g></svg>