<svg xmlns="http://www.w3.org/2000/svg" viewBox="0 0 300 300"><defs><style>.cls-1{fill:none;}</style></defs><g id="Layer_2" data-name="Layer 2"><g id="Layer_1-2" data-name="Layer 1"><path d="M93.41,255.2l31.46,18.16a13.36,13.36,0,0,0,20-11.57v-128a13.35,13.35,0,0,0-6.68-11.56L106.76,104a13.36,13.36,0,0,0-20,11.57V243.63A13.38,13.38,0,0,0,93.41,255.2Z"/><path d="M170.08,63.2l-15-8.65L106.76,26.64a13.36,13.36,0,0,0-20,11.57V74.53A13.38,13.38,0,0,0,93.41,86.1l55,31.76a13.37,13.37,0,0,1,6.67,11.57v68.44a13.35,13.35,0,0,0,6.68,11.56l31.46,18.16a13.35,13.35,0,0,0,20-11.56V95.84a13.35,13.35,0,0,0-6.68-11.56Z"/><rect class="cls-1" width="300" height="300"/></g></g></svg>