<svg xmlns="http://www.w3.org/2000/svg" viewBox="0 0 300 300"><defs><style>.cls-1{fill:#727272;}.cls-2{fill:none;}</style></defs><g id="Layer_2" data-name="Layer 2"><g id="Layer_1-2" data-name="Layer 1"><path class="cls-1" d="M246.13,66.15h0a60.8,60.8,0,0,0-86,0L63.64,162.68l86,86,96.53-96.53A60.78,60.78,0,0,0,246.13,66.15Z"/><path d="M141.73,68.52l93.71,93.71a11.23,11.23,0,0,1,0,15.89h0a11.24,11.24,0,0,1-15.9,0l-40.69-40.69a5.3,5.3,0,0,0-7.51,0h0a5.32,5.32,0,0,0,0,7.51L212,185.64a11.24,11.24,0,0,1,0,15.9h0a11.24,11.24,0,0,1-15.9,0l-40.69-40.69a5.32,5.32,0,0,0-7.51,0h0a5.3,5.3,0,0,0,0,7.51l40.69,40.69a11.24,11.24,0,0,1,0,15.9h0a11.23,11.23,0,0,1-15.89,0L132,184.25a5.33,5.33,0,0,0-7.52,0h0a5.32,5.32,0,0,0,0,7.51l40.7,40.7a11.23,11.23,0,0,1,0,15.89h0a11.23,11.23,0,0,1-15.89,0L55.61,154.65c-25.1-25.1-26.16-64.72-2.38-88.5S116.64,43.43,141.73,68.52Z"/><path class="cls-1" d="M177,92.59l-31.67,31.67a15.31,15.31,0,0,1-21.65,0h0a15.32,15.32,0,0,1,0-21.66l31.66-31.66Z"/><rect class="cls-2" width="300" height="300"/></g></g></svg>