<svg xmlns="http://www.w3.org/2000/svg" viewBox="0 0 300 300"><defs><style>.cls-1{fill:none;}.cls-2{fill:#a8a8a8;}.cls-3{fill:#eaeaea;}.cls-4{fill:#1e1e1e;}</style></defs><g id="Layer_2" data-name="Layer 2"><g id="Layer_1-2" data-name="Layer 1"><rect class="cls-1" width="300" height="300"/><polygon class="cls-2" points="247.28 205.97 150 150 150 38.07 247.28 94.03 247.28 205.97"/><polygon class="cls-3" points="52.72 205.97 150 150 150 38.07 52.72 94.03 52.72 205.97"/><polygon class="cls-4" points="247.28 205.97 151.09 261.93 52.72 205.97 150 150 247.28 205.97"/><path d="M71.08,171.43v-1.25q0-33.17,0-66.34a1.53,1.53,0,0,1,.91-1.56c8.34-4.69,16.65-9.44,25-14.16q15.6-8.85,31.22-17.68l3.44-1.94v1.16c0,7,0,14.07,0,21.11a1.69,1.69,0,0,1-1,1.71c-3.79,2.11-7.54,4.28-11.31,6.42-.25.14-.53.24-1,.43V91.16c-1.32.73-2.46,1.34-3.58,2q-14.81,8.4-29.62,16.8a1.27,1.27,0,0,0-.74,1.27q0,18.27,0,36.55c0,.28,0,.57.08,1l4.85-2.73c9.35-5.3,18.69-10.63,28.06-15.91a1.62,1.62,0,0,0,.93-1.68c0-2.12,0-4.24,0-6.36a1.44,1.44,0,0,1,.51-1.07c4.07-2.36,8.17-4.66,12.27-7a2.65,2.65,0,0,1,.42-.09c0,.34.07.66.07,1,0,7.1,0,14.2,0,21.3a1.34,1.34,0,0,1-.75,1.37q-12,6.77-24,13.57L83.5,164.46l-11.75,6.66C71.6,171.2,71.45,171.26,71.08,171.43Z"/><path d="M218.53,148.68v-1.16q0-18,0-36.05a1.61,1.61,0,0,0-1-1.66c-1.89-1-3.76-2.08-5.61-3.17a1.44,1.44,0,0,1-.71-.94c-.05-4.77,0-9.55,0-14.53.87.48,1.63.87,2.37,1.29q8.76,5,17.52,9.93a1.25,1.25,0,0,1,.73,1.27q0,33.36,0,66.74c0,.26,0,.53-.06,1-.94-.51-1.79-.94-2.62-1.41l-39.9-22.67q-8.55-4.86-17.12-9.68a1.44,1.44,0,0,1-.84-1.43q0-33.37,0-66.75c0-.23,0-.46,0-.87.57.28,1.07.51,1.55.78q9.08,5.15,18.16,10.28a1.49,1.49,0,0,1,.88,1.5c0,4.34,0,8.68,0,13,0,.29,0,.58,0,1.06l-7.16-4c0,.44-.09.74-.09,1q0,18.23,0,36.46a1.28,1.28,0,0,0,.69,1.3q16.42,9.28,32.82,18.6A1.81,1.81,0,0,0,218.53,148.68Z"/></g></g></svg>